<svg width="40" height="40" viewBox="0 0 40 40" fill="none" xmlns="http://www.w3.org/2000/svg">
<path d="M20.8333 17.3958H35.75C36.7165 17.3958 37.5 18.114 37.5 18.9999C37.5 19.8859 36.7165 20.6041 35.75 20.6041H19.1667H4.25C3.2835 20.6041 2.5 19.8859 2.5 18.9999C2.5 18.114 3.2835 17.3958 4.25 17.3958H20.8333Z" fill="#4747B8"/>
<path fill-rule="evenodd" clip-rule="evenodd" d="M35.75 16.25C37.4069 16.25 38.75 17.4812 38.75 19C38.75 20.5188 37.4069 21.75 35.75 21.75H4.25C2.59315 21.75 1.25 20.5188 1.25 19C1.25 17.4812 2.59315 16.25 4.25 16.25H35.75ZM35.75 17.3958H4.25C3.2835 17.3958 2.5 18.114 2.5 19C2.5 19.886 3.2835 20.6042 4.25 20.6042H35.75C36.7165 20.6042 37.5 19.886 37.5 19C37.5 18.114 36.7165 17.3958 35.75 17.3958Z" fill="#4747B8"/>
<path d="M18.146 18.3334L18.146 3.41675C18.146 2.45025 18.8642 1.66675 19.7502 1.66675C20.6361 1.66675 21.3543 2.45025 21.3543 3.41675L21.3543 20.0001L21.3543 34.9167C21.3543 35.8832 20.6361 36.6667 19.7502 36.6667C18.8642 36.6667 18.146 35.8832 18.146 34.9167L18.146 18.3334Z" fill="#4747B8"/>
<path fill-rule="evenodd" clip-rule="evenodd" d="M17 3.41675C17 1.75989 18.2312 0.416748 19.75 0.416748C21.2688 0.416748 22.5 1.7599 22.5 3.41675L22.5 34.9167C22.5 36.5736 21.2688 37.9167 19.75 37.9167C18.2312 37.9167 17 36.5736 17 34.9167L17 3.41675ZM18.1458 3.41675L18.1458 34.9167C18.1458 35.8832 18.8641 36.6667 19.75 36.6667C20.636 36.6667 21.3542 35.8832 21.3542 34.9167L21.3542 3.41675C21.3542 2.45025 20.636 1.66675 19.75 1.66675C18.8641 1.66675 18.1458 2.45025 18.1458 3.41675Z" fill="#4747B8"/>
</svg>
