<svg width="24" height="24" viewBox="0 0 24 24" fill="none" xmlns="http://www.w3.org/2000/svg">
<mask id="mask0" style="mask-type:alpha" maskUnits="userSpaceOnUse" x="2" y="2" width="20" height="20">
<path d="M12 11C13.1046 11 14 10.1046 14 9C14 7.89543 13.1046 7 12 7C10.8954 7 10 7.89543 10 9C10 10.1046 10.8954 11 12 11Z" fill="#F7F7F7"/>
<path fill-rule="evenodd" clip-rule="evenodd" d="M5 9.336C5 5.33648 8.08337 2 12 2C15.9166 2 19 5.33648 19 9.336C19 10.2486 18.6924 11.1711 18.2759 12.017C17.904 12.7722 17.4184 13.5198 16.8983 14.2196C18.0806 14.4711 19.1284 14.8175 19.9542 15.2479C20.9543 15.7693 22 16.6185 22 17.8698C22 18.7216 21.5015 19.3889 20.9279 19.8606C20.3473 20.338 19.5677 20.7233 18.6925 21.0277C16.9327 21.6398 14.5665 22 12 22C9.4335 22 7.06733 21.6398 5.30754 21.0277C4.43234 20.7233 3.65267 20.338 3.07212 19.8606C2.49851 19.3889 2 18.7216 2 17.8698C2 16.6185 3.0457 15.7693 4.04576 15.2479C4.87158 14.8175 5.91937 14.4711 7.10173 14.2196C6.5816 13.5198 6.09601 12.7722 5.72413 12.017C5.3076 11.1711 5 10.2486 5 9.336ZM12 4C9.28922 4 7 6.33697 7 9.336C7 9.81981 7.17011 10.4262 7.51838 11.1334C7.86177 11.8308 8.34625 12.5619 8.89637 13.277C9.97392 14.6777 11.2395 15.9356 12 16.6492C12.7605 15.9356 14.0261 14.6777 15.1036 13.277C15.6538 12.5619 16.1382 11.8308 16.4816 11.1334C16.8299 10.4262 17 9.81981 17 9.336C17 6.33697 14.7108 4 12 4ZM8.55541 15.9879L8.55024 15.9887C7.02381 16.2206 5.79111 16.5935 4.97026 17.0214C4.06498 17.4933 4 17.8375 4 17.8698C4 17.8824 4.00517 18.0385 4.34241 18.3158C4.67271 18.5874 5.21106 18.8766 5.96454 19.1387C7.46211 19.6595 9.59594 20 12 20C14.4041 20 16.5379 19.6595 18.0355 19.1387C18.7889 18.8766 19.3273 18.5874 19.6576 18.3158C19.9948 18.0385 20 17.8824 20 17.8698C20 17.8375 19.935 17.4933 19.0297 17.0214C18.2089 16.5935 16.9762 16.2206 15.4498 15.9887L15.4446 15.9879C14.6261 16.9012 13.8408 17.6664 13.3178 18.1552C12.572 18.8522 11.428 18.8522 10.6822 18.1552C10.1592 17.6664 9.37391 16.9012 8.55541 15.9879Z" fill="#F7F7F7"/>
</mask>
<g mask="url(#mask0)">
<rect width="24" height="24" fill="#EFEFF5"/>
</g>
</svg>
