<svg width="24" height="24" viewBox="0 0 24 24" fill="none" xmlns="http://www.w3.org/2000/svg">
<mask id="mask0" mask-type="alpha" maskUnits="userSpaceOnUse" x="2" y="3" width="22" height="19">
<path d="M23.2427 8.98349C23.7704 9.14637 24.0662 9.7062 23.9033 10.2339C23.7404 10.7616 23.1806 11.0574 22.6529 10.8945L20.8246 10.3303C21.4776 12.6249 21.0172 15.0593 19.6604 17.3006C17.0864 21.5528 11.5527 22.9132 7.30055 20.3392C3.04838 17.7652 1.68796 12.2315 4.26197 7.97932C6.05073 5.02435 8.86714 3.31603 12.2432 3.5834C12.7938 3.627 13.2048 4.10867 13.1612 4.65923C13.1176 5.20979 12.6359 5.62076 12.0853 5.57716C9.58475 5.37912 7.43738 6.59578 5.97291 9.01502C3.9709 12.3223 5.02901 16.6263 8.33625 18.6283C11.6435 20.6303 15.9475 19.5722 17.9495 16.2649C19.0654 14.4216 19.3869 12.5595 18.8907 10.848L17.7921 12.6628C17.5061 13.1353 16.8913 13.2864 16.4188 13.0004C15.9463 12.7144 15.7952 12.0996 16.0812 11.6271L18.1419 8.22295C18.2026 8.11759 18.2833 8.02212 18.3826 7.94272C18.4249 7.90885 18.4697 7.87862 18.5165 7.85223C18.681 7.75916 18.862 7.7177 19.0397 7.72349C19.1149 7.72588 19.1907 7.73682 19.2656 7.75681C19.2804 7.76076 19.2951 7.76504 19.3097 7.76965L23.2427 8.98349Z" fill="#F7F7F7"/>
<circle cx="11.5" cy="12.5" r="2.5" fill="white"/>
</mask>
<g mask="url(#mask0)">
<rect width="24" height="24" fill="#EFEFF5"/>
</g>
</svg>