<svg width="24" height="24" viewBox="0 0 24 24" fill="none" xmlns="http://www.w3.org/2000/svg">
<mask id="mask0" mask-type="alpha" maskUnits="userSpaceOnUse" x="1" y="4" width="22" height="18">
<path fill-rule="evenodd" clip-rule="evenodd" d="M14.0105 11.2266C14.6065 10.6882 14.9852 9.91392 14.9996 9.05094C15.6349 8.40241 16.5204 8 17.5 8C19.433 8 21 9.567 21 11.5C21 13.433 19.433 15 17.5 15C15.567 15 14 13.433 14 11.5C14 11.408 14.0035 11.3169 14.0105 11.2266ZM19 11.5C19 12.3284 18.3284 13 17.5 13C16.6716 13 16 12.3284 16 11.5C16 10.6716 16.6716 10 17.5 10C18.3284 10 19 10.6716 19 11.5Z" fill="black"/>
<path fill-rule="evenodd" clip-rule="evenodd" d="M17.5 18H19C19.7403 18 20.3866 18.4022 20.7324 19H19V21H22C22.5523 21 23 20.5523 23 20C23 17.7909 21.2091 16 19 16H17.5V18ZM12 20C12 20.5523 12.4477 21 13 21L13 20H12Z" fill="#181818"/>
<path fill-rule="evenodd" clip-rule="evenodd" d="M9.00042 9.05094C9.01479 9.91392 9.39354 10.6882 9.98948 11.2266C9.99645 11.3169 10 11.408 10 11.5C10 13.433 8.433 15 6.5 15C4.567 15 3 13.433 3 11.5C3 9.567 4.567 8 6.5 8C7.47956 8 8.36514 8.40241 9.00042 9.05094ZM8 11.5C8 12.3284 7.32843 13 6.5 13C5.67157 13 5 12.3284 5 11.5C5 10.6716 5.67157 10 6.5 10C7.32843 10 8 10.6716 8 11.5Z" fill="black"/>
<path fill-rule="evenodd" clip-rule="evenodd" d="M5 18H6.5V16H5C2.79086 16 1 17.7909 1 20C1 20.5523 1.44771 21 2 21H5V19H3.26756C3.61337 18.4022 4.25972 18 5 18ZM11 21C11.5523 21 12 20.5523 12 20H11V21Z" fill="black"/>
<path fill-rule="evenodd" clip-rule="evenodd" d="M12 4C9.23858 4 7 6.23858 7 9C7 11.7614 9.23858 14 12 14C14.7614 14 17 11.7614 17 9C17 6.23858 14.7614 4 12 4ZM9 9C9 7.34315 10.3431 6 12 6C13.6569 6 15 7.34315 15 9C15 10.6569 13.6569 12 12 12C10.3431 12 9 10.6569 9 9Z" fill="#372463"/>
<path fill-rule="evenodd" clip-rule="evenodd" d="M9.54545 15C6.48278 15 4 17.4828 4 20.5455C4 21.3488 4.65122 22 5.45455 22H18.5455C19.3488 22 20 21.3488 20 20.5455C20 17.4828 17.5172 15 14.4545 15H9.54545ZM14.4545 17C16.2272 17 17.6959 18.3009 17.9583 20H6.0417C6.30407 18.3009 7.77284 17 9.54545 17H14.4545Z" fill="#372463"/>
</mask>
<g mask="url(#mask0)">
<rect width="24" height="24" fill="#EFEFF5"/>
</g>
</svg>
