<svg width="24" height="24" viewBox="0 0 24 24" fill="none" xmlns="http://www.w3.org/2000/svg">
<mask id="mask0" mask-type="alpha" maskUnits="userSpaceOnUse" x="6" y="7" width="12" height="10">
<path d="M10.3536 7.64639C10.5489 7.45112 10.8655 7.45112 11.0608 7.64639L11.7679 8.35349C11.9631 8.54875 11.9631 8.86534 11.7679 9.0606L9.18207 11.6464C8.98681 11.8416 8.98681 12.1582 9.18207 12.3535L11.7679 14.9393C11.9631 15.1345 11.9631 15.4511 11.7679 15.6464L11.0608 16.3535C10.8655 16.5488 10.5489 16.5488 10.3536 16.3535L6.7072 12.707C6.31668 12.3165 6.31668 11.6834 6.7072 11.2928L10.3536 7.64639Z" fill="#F7F7F7"/>
<path d="M15.475 7.64639C15.6702 7.45112 15.9868 7.45112 16.1821 7.64639L16.8892 8.35349C17.0844 8.54875 17.0844 8.86534 16.8892 9.0606L14.3034 11.6464C14.1081 11.8416 14.1081 12.1582 14.3034 12.3535L16.8892 14.9393C17.0844 15.1345 17.0844 15.4511 16.8892 15.6464L16.1821 16.3535C15.9868 16.5488 15.6702 16.5488 15.475 16.3535L11.8285 12.707C11.438 12.3165 11.438 11.6834 11.8285 11.2928L15.475 7.64639Z" fill="#F7F7F7"/>
</mask>
<g mask="url(#mask0)">
<rect width="24" height="24" fill="#EFEFF5"/>
</g>
</svg>
