<svg width="16" height="18" viewBox="0 0 16 18" fill="none" xmlns="http://www.w3.org/2000/svg">
<path fill-rule="evenodd" clip-rule="evenodd" d="M8 0C5.23858 0 3 2.23858 3 5C3 7.76142 5.23858 10 8 10C10.7614 10 13 7.76142 13 5C13 2.23858 10.7614 0 8 0ZM5 5C5 3.34315 6.34315 2 8 2C9.65685 2 11 3.34315 11 5C11 6.65685 9.65685 8 8 8C6.34315 8 5 6.65685 5 5Z" fill="white"/>
<path fill-rule="evenodd" clip-rule="evenodd" d="M5.54545 11C2.48278 11 0 13.4828 0 16.5455C0 17.3488 0.651222 18 1.45455 18H14.5455C15.3488 18 16 17.3488 16 16.5455C16 13.4828 13.5172 11 10.4545 11H5.54545ZM10.4545 13C12.2272 13 13.6959 14.3009 13.9583 16H2.0417C2.30407 14.3009 3.77284 13 5.54545 13H10.4545Z" fill="white"/>
</svg>
