<svg width="18" height="18" viewBox="0 0 18 18" fill="none" xmlns="http://www.w3.org/2000/svg">
<path fill-rule="evenodd" clip-rule="evenodd" d="M2 0C0.89543 0 0 0.895431 0 2V16C0 17.1046 0.89543 18 2 18H11.6827C13.3752 18 14.8845 16.9348 15.4515 15.34L17.4675 9.67002C17.9305 8.368 16.965 7 15.5831 7H15V5C15 3.34315 13.6569 2 12 2H8.4279L7.10972 0.619048C6.73233 0.223687 6.20957 0 5.66301 0H2ZM13 7V5C13 4.44772 12.5523 4 12 4H8.4279C7.88133 4 7.35858 3.77631 6.98119 3.38095L5.66301 2H2V11.2025L2.54844 9.65996C3.11546 8.06524 4.62478 7 6.3173 7H13ZM2.41687 16H11.6827C12.5289 16 13.2836 15.4674 13.5671 14.67L15.5831 9H6.3173C5.47104 9 4.71638 9.53262 4.43287 10.33L2.41687 16Z" fill="white"/>
</svg>
